<svg width="11" height="10" viewBox="0 0 11 10" fill="none" xmlns="http://www.w3.org/2000/svg">
<path d="M10 8.28629L9.49995 8.81346C9.23474 9.09298 8.87508 9.25 8.50007 9.25C8.12506 9.25 7.76541 9.09298 7.5002 8.81346C7.23462 8.5345 6.875 8.37787 6.5001 8.37787C6.1252 8.37787 5.76557 8.5345 5.49999 8.81346M1 9.25H1.83727C2.08186 9.25 2.20416 9.25 2.31925 9.22337C2.42128 9.19976 2.51883 9.16082 2.6083 9.10798C2.70922 9.04839 2.79569 8.96505 2.96865 8.79837L9.25003 2.74495C9.66424 2.34577 9.66424 1.69857 9.25003 1.29939C8.83581 0.900204 8.16424 0.900205 7.75002 1.29939L1.46863 7.35281C1.29568 7.51948 1.2092 7.60282 1.14736 7.70007C1.09253 7.7863 1.05213 7.88031 1.02763 7.97864C1 8.08955 1 8.20741 1 8.44312V9.25Z" stroke="#553AF6" stroke-linecap="round" stroke-linejoin="round"/>
</svg>
