<svg width="15" height="15" viewBox="0 0 15 15" fill="none" xmlns="http://www.w3.org/2000/svg">
<path d="M6.59794 7.50062H2.82192M2.7638 7.72176L1.16077 13.0128C1.03483 13.4285 0.971865 13.6363 1.01705 13.7643C1.0563 13.8755 1.14058 13.9598 1.24458 13.9918C1.36434 14.0288 1.54522 13.9388 1.90699 13.7589L13.3802 8.05406C13.7333 7.87848 13.9099 7.79069 13.9644 7.66874C14.0119 7.56279 14.0119 7.43847 13.9644 7.33251C13.9099 7.21056 13.7333 7.12277 13.3802 6.94719L1.90299 1.24037C1.54231 1.06103 1.36197 0.971358 1.24233 1.00814C1.13843 1.04009 1.05416 1.12413 1.01478 1.23507C0.969437 1.36282 1.03173 1.5702 1.15632 1.98498L2.76425 7.33792C2.78565 7.40916 2.79635 7.44478 2.80057 7.48121C2.80432 7.51354 2.80428 7.54626 2.80046 7.57858C2.79615 7.61499 2.78537 7.65058 2.7638 7.72176Z" stroke="#553AF6" stroke-linecap="round" stroke-linejoin="round"/>
</svg>
